<?xml version="1.0" encoding="UTF-8" standalone="no"?>
<svg
   xmlns:dc="http://purl.org/dc/elements/1.1/"
   xmlns:cc="http://creativecommons.org/ns#"
   xmlns:rdf="http://www.w3.org/1999/02/22-rdf-syntax-ns#"
   xmlns:svg="http://www.w3.org/2000/svg"
   xmlns="http://www.w3.org/2000/svg"
   xmlns:sodipodi="http://sodipodi.sourceforge.net/DTD/sodipodi-0.dtd"
   xmlns:inkscape="http://www.inkscape.org/namespaces/inkscape"
   height="24"
   version="1.1"
   width="24"
   id="svg2"
   inkscape:version="0.48.5 r10040"
   sodipodi:docname="map-marker.svg">
  <metadata
     id="metadata14">
    <rdf:RDF>
      <cc:Work
         rdf:about="">
        <dc:format>image/svg+xml</dc:format>
        <dc:type
           rdf:resource="http://purl.org/dc/dcmitype/StillImage" />
        <dc:title></dc:title>
      </cc:Work>
    </rdf:RDF>
  </metadata>
  <defs
     id="defs12" />
  <sodipodi:namedview
     pagecolor="#ffffff"
     bordercolor="#666666"
     borderopacity="1"
     objecttolerance="10"
     gridtolerance="10"
     guidetolerance="10"
     inkscape:pageopacity="0"
     inkscape:pageshadow="2"
     inkscape:window-width="1600"
     inkscape:window-height="834"
     id="namedview10"
     showgrid="false"
     inkscape:zoom="9.8333333"
     inkscape:cx="2.8474576"
     inkscape:cy="12"
     inkscape:window-x="0"
     inkscape:window-y="27"
     inkscape:window-maximized="1"
     inkscape:current-layer="svg2" />
  <g
     transform="translate(0 -1028.4)"
     id="g4">
    <path
       d="m12 0c-4.4183 2.3685e-15 -8 3.5817-8 8 0 1.421 0.3816 2.75 1.0312 3.906 0.1079 0.192 0.221 0.381 0.3438 0.563l6.625 11.531 6.625-11.531c0.102-0.151 0.19-0.311 0.281-0.469l0.063-0.094c0.649-1.156 1.031-2.485 1.031-3.906 0-4.4183-3.582-8-8-8zm0 4c2.209 0 4 1.7909 4 4 0 2.209-1.791 4-4 4-2.2091 0-4-1.791-4-4 0-2.2091 1.7909-4 4-4z"
       fill="#e74c3c"
       transform="translate(0 1028.4)"
       id="path6" />
    <path
       d="m12 3c-2.7614 0-5 2.2386-5 5 0 2.761 2.2386 5 5 5 2.761 0 5-2.239 5-5 0-2.7614-2.239-5-5-5zm0 2c1.657 0 3 1.3431 3 3s-1.343 3-3 3-3-1.3431-3-3 1.343-3 3-3z"
       fill="#c0392b"
       transform="translate(0 1028.4)"
       id="path8" />
  </g>
  <path
     sodipodi:type="arc"
     style="fill:#ffffff;fill-opacity:1;stroke:none"
     id="path2991"
     sodipodi:cx="-4.8813558"
     sodipodi:cy="10.983051"
     sodipodi:rx="3.3559322"
     sodipodi:ry="3.2542372"
     d="m -1.5254235,10.983051 a 3.3559322,3.2542372 0 1 1 -6.7118645,0 3.3559322,3.2542372 0 1 1 6.7118645,0 z" />
  <path
     sodipodi:type="arc"
     style="fill:#ffffff;fill-opacity:1;stroke:none"
     id="path2995"
     sodipodi:cx="11.644068"
     sodipodi:cy="9.9152546"
     sodipodi:rx="3.2033899"
     sodipodi:ry="2.8983052"
     d="m 14.847458,9.9152546 a 3.2033899,2.8983052 0 1 1 -6.4067801,0 3.2033899,2.8983052 0 1 1 6.4067801,0 z"
     transform="matrix(0.93650794,0,0,1.0877193,1.1460855,-2.751115)" />
</svg>
